<?xml version="1.0" encoding="UTF-8" standalone="no"?>
<svg width="1053px" height="745px" viewBox="0 0 1053 745" version="1.1" xmlns="http://www.w3.org/2000/svg" xmlns:xlink="http://www.w3.org/1999/xlink">
    <!-- Generator: Sketch Beta 3.7.1 (28208) - http://www.bohemiancoding.com/sketch -->
    <title>Group 8</title>
    <desc>Created with Sketch Beta.</desc>
    <defs>
        <path d="M1053,526.5 C1053,235.722079 817.277921,-4.54747351e-13 526.5,-4.54747351e-13 C235.722079,-4.54747351e-13 0,235.722079 0,526.5 C0,817.277921 1053,817.277921 1053,526.5 Z" id="path-1"></path>
        <path d="M1015,515.370058 C1015,245.578957 796.2911,26.8700577 526.5,26.8700577 C256.7089,26.8700577 38,245.578957 38,515.370058 C38,785.161158 1015,785.161158 1015,515.370058 Z" id="path-3"></path>
        <path d="M608.584356,149.274671 C609.366314,142.690579 615.363668,137.353117 622.005444,137.353117 L620.994991,137.353117 C627.625294,137.353117 633.634674,142.695246 634.416079,149.274671 L676.47642,503.422744 C680.079414,533.759951 658.238813,558.353117 627.684454,558.353117 L615.315981,558.353117 C584.765928,558.353117 562.920591,533.763568 566.524015,503.422744 L608.584356,149.274671 Z M621.659235,531.091092 C632.007933,531.091092 640.39721,522.701815 640.39721,512.353117 C640.39721,502.00442 632.007933,493.615143 621.659235,493.615143 C611.310538,493.615143 602.921261,502.00442 602.921261,512.353117 C602.921261,522.701815 611.310538,531.091092 621.659235,531.091092 Z" id="path-5"></path>
        <mask id="mask-6" maskContentUnits="userSpaceOnUse" maskUnits="objectBoundingBox" x="-17" y="-17" width="144.730049" height="455">
            <rect x="549.135184" y="120.353117" width="144.730049" height="455" fill="white"></rect>
            <use xlink:href="#path-5" fill="black"></use>
        </mask>
        <polygon id="path-7" points="0 0 138 0 138 138 0 138"></polygon>
    </defs>
    <g id="Page-1" stroke="none" stroke-width="1" fill="none" fill-rule="evenodd" opacity="0.9">
        <g id="Desktop-HD" transform="translate(-194.000000, -257.000000)">
            <g id="Group-8" transform="translate(194.000000, 257.000000)">
                <mask id="mask-2" fill="white">
                    <use xlink:href="#path-1"></use>
                </mask>
                <use id="Oval-55" fill="#8592A5" xlink:href="#path-1"></use>
                <mask id="mask-4" fill="white">
                    <use xlink:href="#path-3"></use>
                </mask>
                <use id="Oval-55-Copy" fill="#FFFFFF" xlink:href="#path-3"></use>
                <path d="M116.160018,324.602651 C148.648772,248.998835 170.381953,234.223994 170.381953,234.223994 C195.26881,204.679479 238.677615,201.749905 267.354711,227.695519 L504.486955,442.241009 C533.156673,468.179947 525.058839,489.207612 486.403295,489.207613 L430.406096,489.207614 C391.749048,489.207615 329.207239,492.093188 290.7026,495.653874 L141.106782,509.487629 C102.607719,513.047799 75.5214519,484.868497 81.9435587,446.757024 C81.9435587,446.757024 83.6712636,400.206466 116.160018,324.602651 Z" id="Rectangle-14" fill="#E7EAED" mask="url(#mask-4)"></path>
                <path d="M567.160018,324.602651 C599.648772,248.998835 621.381953,234.223994 621.381953,234.223994 C646.26881,204.679479 689.677615,201.749905 718.354711,227.695519 L955.486955,442.241009 C984.156673,468.179947 976.058839,489.207612 937.403295,489.207613 L881.406096,489.207614 C842.749048,489.207615 780.207239,492.093188 741.7026,495.653874 L592.106782,509.487629 C553.607719,513.047799 526.521452,484.868497 532.943559,446.757024 C532.943559,446.757024 534.671264,400.206466 567.160018,324.602651 Z" id="Rectangle-14-Copy-2" fill="#BBC2CD" mask="url(#mask-4)" transform="translate(752.320490, 359.895548) scale(-1, 1) translate(-752.320490, -359.895548) "></path>
                <path d="M390.904246,163.333906 C445.23211,31.0575333 533.979314,-9.16108672 533.979314,-9.16108672 C566.217887,-30.4256548 603.967163,-18.5522802 618.289807,17.3466166 L712.969979,254.657118 C727.294805,290.561487 709.667681,330.967302 673.611531,344.901073 L663.908052,348.650948 C627.846155,362.58694 570.693092,388.130608 536.255951,405.702881 L444.441363,452.553197 C410.002952,470.126117 375.968067,453.645729 370.263864,415.401864 C370.263864,415.401864 336.576382,295.610279 390.904246,163.333906 Z" id="Rectangle-14-Copy" fill="#CFD4DB" mask="url(#mask-4)" transform="translate(538.945197, 219.931918) rotate(-292.000000) translate(-538.945197, -219.931918) "></path>
                <path d="M68.5,537.5 C68.5,537.5 315.112183,505.5 550,505.5 C784.887817,505.5 985.639587,537.5 985.639587,537.5" id="Line" stroke="#8592A5" stroke-width="4" stroke-linecap="square" mask="url(#mask-4)"></path>
                <g id="Combined-Shape" mask="url(#mask-4)" transform="translate(621.500209, 347.853117) rotate(-327.000000) translate(-621.500209, -347.853117) ">
                    <use fill="#D8D8D8" fill-rule="evenodd" xlink:href="#path-5"></use>
                    <use stroke="#FFFFFF" mask="url(#mask-6)" stroke-width="34" xlink:href="#path-5"></use>
                </g>
                <g id="Group-7" mask="url(#mask-4)">
                    <g transform="translate(38.000000, 360.000000)" id="Page-1">
                        <g opacity="0.2" transform="translate(717.000000, 0.000000)">
                            <path d="M157,284.8125 L122.111111,284.8125 L122.111111,331.3125 C122.111111,350.569313 137.735519,366.1875 157,366.1875 C176.264481,366.1875 191.888889,350.569313 191.888889,331.3125 L191.888889,284.8125 L157,284.8125 L157,284.8125 Z" id="Fill-1" fill="#C2CDDC"></path>
                            <path d="M222.236407,223.2 C239.384296,206.332125 250.037037,182.890312 250.037037,156.9375 C250.037037,105.572437 208.385519,63.9375 157,63.9375 C105.614481,63.9375 63.962963,105.572437 63.962963,156.9375 C63.962963,182.919375 74.6447778,206.39025 91.8333704,223.258125 C98.4157407,231.093375 105.184185,238.446187 110.481481,249.9375 C116.767296,263.573625 116.023,271.30425 116.023,279 L110.481481,279 C107.265889,279 104.666667,281.598187 104.666667,284.8125 C104.666667,288.026813 107.265889,290.625 110.481481,290.625 L116.296296,290.625 L116.296296,331.3125 C116.296296,353.783625 134.519926,372 157,372 C179.480074,372 197.703704,353.783625 197.703704,331.3125 L197.703704,290.625 L203.518519,290.625 C206.728296,290.625 209.333333,288.026813 209.333333,284.8125 C209.333333,281.598187 206.728296,279 203.518519,279 L197.703704,279 C197.703704,272.856188 197.761852,260.987062 203.518519,249.9375 C209.560111,238.33575 216.02037,229.954125 222.236407,223.2 L222.236407,223.2 Z M157,360.375 C142.933963,360.375 131.205481,350.389125 128.513222,337.125 L185.492593,337.125 C182.794519,350.389131 171.066037,360.375 157,360.375 L157,360.375 Z M186.074074,325.5 L127.925926,325.5 L127.925926,313.875 L186.074074,313.875 L186.074074,325.5 L186.074074,325.5 Z M186.074074,302.25 L127.925926,302.25 L127.925926,290.625 L157,290.625 L186.074074,290.625 L186.074074,302.25 L186.074074,302.25 Z M151.185185,279 L151.185185,209.25 L162.814815,209.25 L162.814815,279 L151.185185,279 L151.185185,279 Z M192.255222,246.670875 C185.597259,262.079812 186.074074,279 186.074074,279 L174.444444,279 L174.444444,209.25 L180.259259,209.25 C189.894407,209.25 197.703704,201.443812 197.703704,191.8125 C197.703704,182.181187 189.894407,174.375 180.259259,174.375 C170.624111,174.375 162.814815,182.181187 162.814815,191.8125 L162.814815,197.625 L151.185185,197.625 L151.185185,191.8125 C151.185185,182.181187 143.375889,174.375 133.740741,174.375 C124.105593,174.375 116.296296,182.181187 116.296296,191.8125 C116.296296,201.443812 124.105593,209.25 133.740741,209.25 L139.555556,209.25 L139.555556,279 L127.925926,279 C127.925926,279 128.623704,261.35325 122.111111,247.03125 C116.406778,234.482062 104.631778,220.3635 98.532037,213.487312 C97.2934815,212.20275 96.0898148,210.889125 94.9326667,209.523187 C94.7698519,209.354625 94.671,209.25 94.671,209.25 L94.6826296,209.25 C82.7797037,195.096562 75.5925926,176.868562 75.5925926,156.9375 C75.5925926,111.99525 112.039852,75.5625 157,75.5625 C201.954333,75.5625 238.407407,111.99525 238.407407,156.9375 C238.407407,176.868562 231.220296,195.096562 219.31737,209.25 L219.329,209.25 C219.329,209.25 219.218519,209.36625 219.044074,209.55225 C217.950889,210.842625 216.811185,212.080687 215.642407,213.2955 C209.542667,220.160062 197.476926,234.56925 192.255222,246.670875 L192.255222,246.670875 Z M174.444444,191.8125 C174.444444,188.598187 177.043667,186 180.259259,186 C183.469037,186 186.074074,188.598187 186.074074,191.8125 C186.074074,195.021 183.469037,197.625 180.259259,197.625 C177.043667,197.625 174.444444,195.021 174.444444,191.8125 L174.444444,191.8125 Z M139.555556,191.8125 C139.555556,195.021 136.950519,197.625 133.740741,197.625 C130.525148,197.625 127.925926,195.021 127.925926,191.8125 C127.925926,188.598187 130.525148,186 133.740741,186 C136.950519,186 139.555556,188.598187 139.555556,191.8125 L139.555556,191.8125 Z M157,87.1875 C118.459407,87.1875 87.2222222,118.41225 87.2222222,156.9375 C87.2222222,160.151813 89.8214444,162.75 93.037037,162.75 C96.2526296,162.75 98.8518519,160.151813 98.8518519,156.9375 C98.8518519,124.840875 124.890593,98.8125 157,98.8125 C160.215593,98.8125 162.814815,96.2085 162.814815,93 C162.814815,89.7856875 160.215593,87.1875 157,87.1875 L157,87.1875 Z" id="Fill-3" fill="#8592A5"></path>
                            <path d="M157,0 C153.784407,0 151.185185,2.5981875 151.185185,5.8125 L151.185185,29.0625 C151.185185,32.271 153.784407,34.875 157,34.875 C160.215593,34.875 162.814815,32.271 162.814815,29.0625 L162.814815,5.8125 C162.814815,2.5981875 160.215593,0 157,0 L157,0 Z M277.389926,48.2205 C275.029111,45.8664375 271.208778,45.8664375 268.842148,48.2205 L251.758222,65.297625 C249.403222,67.6575 249.403222,71.4763125 251.758222,73.842 C254.119037,76.1960625 257.93937,76.1960625 260.306,73.842 L277.389926,56.764875 C279.744926,54.3991875 279.744926,50.580375 277.389926,48.2205 L277.389926,48.2205 Z M45.2683333,48.208875 C42.924963,45.8664375 39.1220741,45.8664375 36.7787037,48.208875 C34.4353333,50.5513125 34.4353333,54.3585 36.7787037,56.695125 L53.757963,73.6734375 C56.1013333,76.015875 59.910037,76.015875 62.2534074,73.6734375 C64.5967778,71.331 64.5967778,67.529625 62.2534074,65.1871875 L45.2683333,48.208875 L45.2683333,48.208875 Z M308.185185,151.125 L284.925926,151.125 C281.710333,151.125 279.111111,153.723188 279.111111,156.9375 C279.111111,160.146 281.710333,162.75 284.925926,162.75 L308.185185,162.75 C311.400778,162.75 314,160.146 314,156.9375 C314,153.723188 311.400778,151.125 308.185185,151.125 L308.185185,151.125 Z M29.0740741,151.125 L5.81481481,151.125 C2.59922222,151.125 0,153.723188 0,156.9375 C0,160.146 2.59922222,162.75 5.81481481,162.75 L29.0740741,162.75 C32.2896667,162.75 34.8888889,160.146 34.8888889,156.9375 C34.8888889,153.723188 32.2896667,151.125 29.0740741,151.125 L29.0740741,151.125 Z" id="Fill-4" fill="#8592A5"></path>
                        </g>
                        <g opacity="0.6" transform="translate(312.000000, 183.000000)">
                            <polygon id="Fill-1" fill="#EDF2F8" points="3.171875 60.265625 85.640625 60.265625 85.640625 199.828125 3.171875 199.828125"></polygon>
                            <path d="M44.40625,126.875 C28.6388594,126.875 15.859375,139.654484 15.859375,155.421875 C15.859375,171.189266 28.6388594,183.96875 44.40625,183.96875 C60.1736406,183.96875 72.953125,171.189266 72.953125,155.421875 C72.953125,139.654484 60.1736406,126.875 44.40625,126.875 L44.40625,126.875 Z M44.40625,168.109375 C37.3995781,168.109375 31.71875,162.428547 31.71875,155.421875 C31.71875,148.415203 37.3995781,142.734375 44.40625,142.734375 C51.4129219,142.734375 57.09375,148.415203 57.09375,155.421875 C57.09375,162.428547 51.4129219,168.109375 44.40625,168.109375 L44.40625,168.109375 Z" id="Fill-3" fill="#FFFFFF"></path>
                            <polygon id="Fill-4" fill="#F05E34" points="15.859375 72.953125 72.953125 72.953125 72.953125 111.015625 15.859375 111.015625"></polygon>
                            <path d="M76.125,69.78125 L12.6875,69.78125 L12.6875,114.1875 L76.125,114.1875 L76.125,69.78125 L76.125,69.78125 Z M69.78125,107.84375 L19.03125,107.84375 L19.03125,76.125 L69.78125,76.125 L69.78125,107.84375 L69.78125,107.84375 Z M44.40625,187.140625 C61.9213438,187.140625 76.125,172.936969 76.125,155.421875 C76.125,137.906781 61.9213438,123.703125 44.40625,123.703125 C26.8911563,123.703125 12.6875,137.906781 12.6875,155.421875 C12.6875,172.936966 26.8911563,187.140625 44.40625,187.140625 L44.40625,187.140625 Z M44.40625,130.046875 C58.4195938,130.046875 69.78125,141.408531 69.78125,155.421875 C69.78125,169.435219 58.4195938,180.796875 44.40625,180.796875 C30.3929063,180.796875 19.03125,169.435219 19.03125,155.421875 C19.03125,141.408531 30.3929063,130.046875 44.40625,130.046875 L44.40625,130.046875 Z M44.40625,171.28125 C53.1669688,171.28125 60.265625,164.182594 60.265625,155.421875 C60.265625,146.661156 53.1669688,139.5625 44.40625,139.5625 C35.6455313,139.5625 28.546875,146.661156 28.546875,155.421875 C28.546875,164.182594 35.6455313,171.28125 44.40625,171.28125 L44.40625,171.28125 Z M44.40625,145.90625 C49.6620469,145.90625 53.921875,150.166078 53.921875,155.421875 C53.921875,160.677672 49.6620469,164.9375 44.40625,164.9375 C39.1504531,164.9375 34.890625,160.677672 34.890625,155.421875 C34.890625,150.166078 39.1504531,145.90625 44.40625,145.90625 L44.40625,145.90625 Z M174.453125,136.390625 L155.421875,136.390625 C143.159406,136.390625 133.21875,126.449969 133.21875,114.1875 L133.21875,28.546875 C133.21875,12.7794844 120.439266,0 104.671875,0 C88.9044844,0 76.125,12.7794844 76.125,28.546875 L76.125,57.09375 L6.34375,57.09375 C2.842,57.09375 0,59.93575 0,63.4375 L0,196.65625 C0,200.158 2.842,203 6.34375,203 L82.46875,203 C85.9705,203 88.8125,200.158 88.8125,196.65625 L88.8125,63.4375 C88.8125,59.93575 85.9705,57.09375 82.46875,57.09375 L82.46875,28.546875 C82.46875,16.2844063 92.4094063,6.34375 104.671875,6.34375 C116.934344,6.34375 126.875,16.2844063 126.875,28.546875 L126.875,114.1875 C126.875,129.954891 139.654484,142.734375 155.421875,142.734375 L174.453125,142.734375 C186.715594,142.734375 196.65625,152.675031 196.65625,164.9375 C196.65625,177.199969 186.715594,187.140625 174.453125,187.140625 L142.734375,187.140625 L142.734375,193.484375 L174.453125,193.484375 C190.220516,193.484375 203,180.704891 203,164.9375 C203,149.170109 190.220516,136.390625 174.453125,136.390625 L174.453125,136.390625 Z M82.46875,196.65625 L6.34375,196.65625 L6.34375,63.4375 L82.46875,63.4375 L82.46875,196.65625 L82.46875,196.65625 Z" id="Fill-5" fill="#8592A5"></path>
                            <path d="M98.7129369,183.583938 C102.42901,187.300021 102.42901,193.324979 98.7129369,197.041062 C94.9968633,200.757146 88.9718867,200.757146 85.2558131,197.041062 C81.5397395,193.324979 81.5397395,187.300021 85.2558131,183.583938 C88.9718867,179.867855 94.9968633,179.867855 98.7129369,183.583938" id="Fill-6" fill="#FFFFFF"></path>
                            <path d="M137.802109,183.96875 C135.604,180.194219 131.556687,177.625 126.875,177.625 C122.193312,177.625 118.146,180.194219 115.947891,183.96875 L102.914656,183.96875 C100.716547,180.194219 96.6692344,177.625 91.9875469,177.625 C84.980875,177.625 79.3000469,183.305828 79.3000469,190.3125 C79.3000469,197.319172 84.980875,203 91.9875469,203 C96.6724062,203 100.716547,200.430781 102.914656,196.65625 L115.947891,196.65625 C118.146,200.430781 122.193312,203 126.875,203 C131.556687,203 135.604,200.430781 137.802109,196.65625 L161.765625,196.65625 L161.765625,183.96875 L137.802109,183.96875 L137.802109,183.96875 Z M91.984375,196.65625 C88.482625,196.65625 85.640625,193.81425 85.640625,190.3125 C85.640625,186.81075 88.482625,183.96875 91.984375,183.96875 C95.486125,183.96875 98.328125,186.81075 98.328125,190.3125 C98.328125,193.81425 95.486125,196.65625 91.984375,196.65625 L91.984375,196.65625 Z M126.875,196.65625 C123.37325,196.65625 120.53125,193.81425 120.53125,190.3125 C120.53125,186.81075 123.37325,183.96875 126.875,183.96875 C130.37675,183.96875 133.21875,186.81075 133.21875,190.3125 C133.21875,193.81425 130.37675,196.65625 126.875,196.65625 L126.875,196.65625 Z" id="Fill-7" fill="#8592A5"></path>
                        </g>
                        <g opacity="0.6" transform="translate(549.000000, 135.000000)">
                            <polygon id="Fill-1" fill="#EDF2F8" points="56.71875 118.5 108.28125 118.5 108.28125 231.847826 56.71875 231.847826"></polygon>
                            <polygon id="Fill-3" fill="#C2CDDC" points="139.21875 66.9782609 190.78125 66.9782609 190.78125 231.847826 139.21875 231.847826"></polygon>
                            <polygon id="Fill-4" fill="#FFFFFF" points="221.71875 15.4565217 273.28125 15.4565217 273.28125 231.847826 221.71875 231.847826"></polygon>
                            <path d="M324.84375,226.695652 L278.4375,226.695652 L278.4375,20.6086957 C278.4375,14.9206957 273.8175,10.3043478 268.125,10.3043478 L226.875,10.3043478 C221.1825,10.3043478 216.5625,14.9206957 216.5625,20.6086957 L216.5625,226.695652 L195.9375,226.695652 L195.9375,72.1304348 C195.9375,66.4424348 191.3175,61.826087 185.625,61.826087 L144.375,61.826087 C138.6825,61.826087 134.0625,66.4424348 134.0625,72.1304348 L134.0625,226.695652 L113.4375,226.695652 L113.4375,123.652174 C113.4375,117.964174 108.8175,113.347826 103.125,113.347826 L61.875,113.347826 C56.1825,113.347826 51.5625,117.964174 51.5625,123.652174 L51.5625,226.695652 L5.15625,226.695652 C2.30484375,226.695652 0,228.998674 0,231.847826 C0,234.691826 2.30484375,237 5.15625,237 L324.84375,237 C327.695156,237 330,234.691826 330,231.847826 C330,228.998674 327.695156,226.695652 324.84375,226.695652 L324.84375,226.695652 Z M82.5,226.695652 L82.5,139.108696 C82.5,136.259543 80.1951562,133.956522 77.34375,133.956522 C74.4923438,133.956522 72.1875,136.259543 72.1875,139.108696 L72.1875,226.695652 L61.875,226.695652 L61.875,123.652174 L103.125,123.652174 L103.125,226.695652 L82.5,226.695652 L82.5,226.695652 Z M165,226.695652 L165,87.5869565 C165,84.7378043 162.695156,82.4347826 159.84375,82.4347826 C156.992344,82.4347826 154.6875,84.7378043 154.6875,87.5869565 L154.6875,226.695652 L144.375,226.695652 L144.375,72.1304348 L185.625,72.1304348 L185.625,226.695652 L165,226.695652 L165,226.695652 Z M247.5,226.695652 L247.5,36.0652174 C247.5,33.2160652 245.195156,30.9130435 242.34375,30.9130435 C239.492344,30.9130435 237.1875,33.2160652 237.1875,36.0652174 L237.1875,226.695652 L226.875,226.695652 L226.875,20.6086957 L268.125,20.6086957 L268.125,226.695652 L247.5,226.695652 L247.5,226.695652 Z" id="Fill-5" fill="#8592A5"></path>
                            <path d="M123.389063,3.34376087 C123.316875,3.15828261 123.218906,2.99856522 123.126094,2.8233913 C122.940469,2.46273913 122.723906,2.133 122.460938,1.83417391 C122.316563,1.66415217 122.172188,1.50443478 122.007188,1.34986957 C121.692656,1.07165217 121.352344,0.85526087 120.98625,0.659478261 C120.82125,0.56673913 120.682031,0.453391304 120.506719,0.38126087 C119.91375,0.14426087 119.274375,1.20253579e-13 118.59375,1.20253579e-13 C118.51125,1.20253579e-13 118.444219,0.0412173913 118.361719,0.0463695652 C118.26375,0.0515217391 118.170938,-0.00515217391 118.067813,1.20253579e-13 L87.65625,1.20253579e-13 C84.8048438,1.20253579e-13 82.5,2.30302174 82.5,5.15217391 C82.5,7.99617391 84.8048438,10.3043478 87.65625,10.3043478 L105.883594,10.3043478 L53.0217188,63.1244348 C50.9798438,65.1646957 50.9798438,68.4672391 53.0217188,70.5126522 C55.0635938,72.552913 58.36875,72.552913 60.4157813,70.5126522 L113.4375,17.5225435 L113.4375,36.0652174 C113.4375,38.9092174 115.742344,41.2173913 118.59375,41.2173913 C121.445156,41.2173913 123.75,38.9092174 123.75,36.0652174 L123.75,5.15217391 C123.75,4.50815217 123.600469,3.91565217 123.389063,3.34376087 L123.389063,3.34376087 Z" id="Fill-6" fill="#8592A5"></path>
                        </g>
                        <g opacity="0.2" transform="translate(0.000000, 57.000000)">
                            <polygon id="Fill-1" fill="#C2CDDC" points="4.91666667 9.84375 177 9.84375 177 310.078125 4.91666667 310.078125"></polygon>
                            <polygon id="Fill-3" fill="#EDF2F8" points="4.91666667 44.296875 172.083333 44.296875 172.083333 260.859375 4.91666667 260.859375"></polygon>
                            <path d="M167.166667,0 L9.83333333,0 C4.40533333,0 0,4.41 0,9.84375 L0,305.15625 C0,310.59 4.40533333,315 9.83333333,315 L167.166667,315 C172.594667,315 177,310.59 177,305.15625 L177,9.84375 C177,4.41 172.594667,0 167.166667,0 L167.166667,0 Z M167.166667,305.15625 L9.83333333,305.15625 L9.83333333,265.78125 L167.166667,265.78125 L167.166667,305.15625 L167.166667,305.15625 Z M167.166667,255.9375 L9.83333333,255.9375 L9.83333333,49.21875 L167.166667,49.21875 L167.166667,255.9375 L167.166667,255.9375 Z M167.166667,39.375 L9.83333333,39.375 L9.83333333,9.84375 L167.166667,9.84375 L167.166667,39.375 L167.166667,39.375 Z M73.75,29.53125 L103.25,29.53125 C105.964,29.53125 108.166667,27.32625 108.166667,24.609375 C108.166667,21.8875781 105.964,19.6875 103.25,19.6875 L73.75,19.6875 C71.0310833,19.6875 68.8333333,21.8875781 68.8333333,24.609375 C68.8333333,27.32625 71.0310833,29.53125 73.75,29.53125 L73.75,29.53125 Z" id="Fill-4" fill="#8592A5"></path>
                            <polygon id="Fill-5" fill="#EDF2F8" points="63.9166667 162.421875 290.083333 162.421875 290.083333 310.078125 63.9166667 310.078125"></polygon>
                            <path d="M156.489781,242.016321 C164.170057,249.704782 164.170057,262.170218 156.489781,269.858664 C148.809456,277.54711 136.357211,277.54711 128.676886,269.858664 C120.99661,262.170218 120.99661,249.704782 128.676886,242.016321 C136.357211,234.327909 148.809456,234.327909 156.489781,242.016321" id="Fill-6" fill="#FFFFFF"></path>
                            <path d="M191.75,251.015625 L260.583333,251.015625 C263.297333,251.015625 265.5,248.805703 265.5,246.09375 C265.5,243.371953 263.297333,241.171875 260.583333,241.171875 L191.75,241.171875 C189.031083,241.171875 186.833333,243.371953 186.833333,246.09375 C186.833333,248.805703 189.031083,251.015625 191.75,251.015625 L191.75,251.015625 Z M285.166667,157.5 L68.8333333,157.5 C63.4053333,157.5 59,161.905078 59,167.34375 L59,305.15625 C59,310.59 63.4053333,315 68.8333333,315 L285.166667,315 C290.594667,315 295,310.59 295,305.15625 L295,167.34375 C295,161.905078 290.594667,157.5 285.166667,157.5 L285.166667,157.5 Z M285.166667,305.15625 L68.8333333,305.15625 L68.8333333,206.71875 L285.166667,206.71875 L285.166667,305.15625 L285.166667,305.15625 Z M285.166667,187.03125 L68.8333333,187.03125 L68.8333333,167.34375 L285.166667,167.34375 L285.166667,187.03125 L285.166667,187.03125 Z M113.083333,280.546875 C118.644083,280.546875 123.713167,278.622422 127.833333,275.511797 C131.9535,278.622427 137.022583,280.546875 142.583333,280.546875 C156.163167,280.546875 167.166667,269.531719 167.166667,255.9375 C167.166667,242.343281 156.163167,231.328125 142.583333,231.328125 C137.022583,231.328125 131.9535,233.242734 127.833333,236.353359 C123.713167,233.242734 118.644083,231.328125 113.083333,231.328125 C99.5035,231.328125 88.5,242.343281 88.5,255.9375 C88.5,269.531719 99.5035,280.546875 113.083333,280.546875 L113.083333,280.546875 Z M134.303667,243.721406 C136.663667,242.111953 139.515333,241.171875 142.583333,241.171875 C150.73025,241.171875 157.333333,247.777031 157.333333,255.9375 C157.333333,264.088125 150.73025,270.703125 142.583333,270.703125 C139.515333,270.703125 136.663667,269.763047 134.303667,268.153594 C136.383417,264.540937 137.666667,260.406563 137.666667,255.9375 C137.666667,251.468437 136.383417,247.334062 134.303667,243.721406 L134.303667,243.721406 Z M191.75,270.703125 L226.166667,270.703125 C228.885583,270.703125 231.083333,268.493203 231.083333,265.78125 C231.083333,263.059453 228.885583,260.859375 226.166667,260.859375 L191.75,260.859375 C189.031083,260.859375 186.833333,263.059453 186.833333,265.78125 C186.833333,268.493198 189.031083,270.703125 191.75,270.703125 L191.75,270.703125 Z" id="Fill-7" fill="#8592A5"></path>
                        </g>
                        <g opacity="0.4" transform="translate(145.000000, 234.000000)">
                            <mask id="mask-8" fill="white">
                                <use xlink:href="#path-7"></use>
                            </mask>
                            <g id="Clip-2"></g>
                            <polygon id="Fill-1" fill="#F05E34" mask="url(#mask-8)" points="77.625 43.125 69 38.8125 60.375 43.125 53.90625 107.8125 84.09375 107.8125"></polygon>
                            <path d="M69,107.8125 C32.0828437,107.8125 2.15625,122.306812 2.15625,135.84375 L135.84375,135.84375 C135.84375,122.845875 105.917156,107.8125 69,107.8125 L69,107.8125 Z M23.71875,32.34375 C8.1290625,48.9878438 13.2717187,66.84375 13.2717187,66.84375 L69,39.2825625 L124.728281,66.84375 C124.728281,66.84375 129.933469,49.0978125 114.28125,32.34375 C110.984344,28.8139688 107.732719,26.1790313 104.62125,24.2146875 L125.0625,19.40625 C125.0625,19.40625 123.814031,2.15625 99.1875,2.15625 C84.2101875,2.15625 73.3793437,9.5694375 69,13.170375 C64.6206562,9.5694375 53.7898125,2.15625 38.8125,2.15625 C14.1859687,2.15625 12.9375,19.40625 12.9375,19.40625 L33.4973437,24.2427188 C30.3255,26.1855 27.0285937,28.8096563 23.71875,32.34375 L23.71875,32.34375 Z" id="Fill-3" fill="#EDF2F9" mask="url(#mask-8)"></path>
                            <path d="M137.851219,135.067498 C135.192562,121.291217 114.018187,110.005406 86.1270937,106.667531 L79.9753125,46.7173125 L124.005937,68.7132187 C124.031812,68.7283125 124.059844,68.7261562 124.085719,68.74125 C124.236656,68.818875 124.400531,68.862 124.570875,68.9029687 C124.698094,68.9331562 124.816687,68.9698125 124.946062,68.9784375 C124.984875,68.9784375 125.019375,69 125.0625,69 C125.14875,69 125.222062,68.9611875 125.306156,68.9504062 C125.478656,68.9331562 125.644687,68.9072812 125.808562,68.8490625 C125.8905,68.818875 125.961656,68.77575 126.041437,68.7347812 C126.222562,68.6442187 126.388594,68.5385625 126.539531,68.3984062 C126.578344,68.36175 126.606375,68.3229375 126.640875,68.284125 C126.753,68.1655312 126.878062,68.0663437 126.962156,67.921875 C127.005281,67.8485625 127.007437,67.7687812 127.039781,67.6933125 C127.044094,67.6825312 127.04625,67.67175 127.050562,67.663125 C127.167,67.3828125 127.220906,67.1003437 127.214437,66.80925 L127.214437,58.21875 C127.214437,44.4769687 120.426562,32.3459062 110.044219,24.9154687 L125.601562,21.1592812 C126.785344,20.8725 127.488281,19.7749687 127.171312,18.7097812 C127.128187,18.5653125 127.033312,18.4531875 126.96,18.3259687 L127.240312,18.2461875 C123.607031,3.9976875 106.152187,-3.46940625 88.2574687,1.56759375 C80.8615312,3.648375 74.5782187,7.55334375 69.974625,12.4092187 C65.2006875,7.59215625 58.7319375,3.71090625 51.1419375,1.6215 C32.568,-3.48665625 14.4878437,3.9631875 10.755375,18.2634375 L11.0550937,18.345375 C10.9860937,18.4682812 10.8912187,18.5760937 10.85025,18.71625 C10.5332812,19.7835937 11.2362187,20.8789687 12.42,21.1635937 L27.9514687,24.9154687 C17.569125,32.3480625 10.78125,44.479125 10.78125,58.21875 L10.78125,66.80925 C10.7769375,67.0981875 10.8286875,67.3828125 10.9472812,67.663125 C10.9515937,67.67175 10.9515937,67.6825312 10.9559062,67.6933125 C10.9904062,67.7687812 10.9925625,67.8507187 11.0335312,67.921875 C11.117625,68.0663437 11.2448437,68.1655312 11.3548125,68.284125 C11.3914687,68.3229375 11.4195,68.3639062 11.4561562,68.3984062 C11.60925,68.5385625 11.773125,68.6442187 11.9564062,68.7347812 C12.0340312,68.77575 12.1073437,68.818875 12.1892812,68.8490625 C12.3531562,68.9072812 12.5191875,68.9331562 12.6916875,68.9504062 C12.7779375,68.9611875 12.85125,69 12.9375,69 C12.980625,69 13.015125,68.9784375 13.0560937,68.9762812 C13.1833125,68.9676562 13.3040625,68.9331562 13.429125,68.9008125 C13.5994687,68.8598437 13.7611875,68.8167187 13.9142812,68.7390937 C13.9401562,68.7261562 13.9703437,68.7261562 13.9962187,68.7110625 L58.0268437,46.7151562 L51.8729062,106.665375 C23.9818125,110.005406 2.80959375,121.291217 0.14878125,135.067498 C0.0560625,135.308998 0,135.567754 0,135.84375 C0,137.036156 0.96384375,138 2.15625,138 L135.84375,138 C137.036156,138 138,137.036156 138,135.84375 C138,135.567754 137.943937,135.308998 137.851219,135.067498 L137.851219,135.067498 Z M15.09375,63.3441562 L15.09375,58.21875 C15.09375,38.1634687 31.2074063,21.8924062 51.189375,21.5905312 L42.0145312,26.1639375 C40.9795312,26.7590625 40.6215937,28.0786875 41.2210313,29.109375 C41.8204687,30.1422187 43.1465625,30.4958437 44.1815625,29.8985625 L61.4833125,21.2735625 C61.5156562,21.2541562 61.5329062,21.2239687 61.56525,21.2024062 C61.711875,21.1032187 61.8434063,20.9824687 61.9641563,20.8530937 C62.1043125,20.7 62.212125,20.5339687 62.3026875,20.3528437 C62.3264063,20.3075625 62.350125,20.2622812 62.3695313,20.217 C62.5700625,19.7318437 62.583,19.2035625 62.3997187,18.6925312 C62.3824688,18.64725 62.3695313,18.5976562 62.3522813,18.5545312 C62.3199375,18.4812187 62.3177813,18.4035937 62.2789687,18.3302812 C61.9576875,17.776125 61.4250938,17.4246562 60.8385938,17.3039062 C60.8084062,17.2974375 60.7782188,17.293125 60.745875,17.2888125 C60.6488437,17.2715625 60.5496562,17.2607812 60.4504687,17.258625 C60.4245937,17.2564687 60.400875,17.25 60.375,17.25 L51.75,17.25 C44.8909687,17.25 38.4394688,18.95775 32.7599063,21.9355312 L15.5120625,17.7696562 C19.5895313,6.9646875 34.5366563,1.6775625 50.0120625,5.93615625 C56.9551875,7.84659375 62.8611563,11.3720625 67.1240625,15.7082812 C67.1240625,15.7082812 68.517,17.25 70.078125,17.25 C71.0678438,17.25 72.010125,16.4565 72.95025,15.4754062 C77.0428125,11.2060312 82.6986563,7.73878125 89.3528437,5.86715625 C104.259,1.67109375 118.684313,6.969 122.6475,17.7308437 L105.235781,21.933375 C99.558375,18.95775 93.106875,17.25 86.25,17.25 L77.625,17.25 C77.599125,17.25 77.5754063,17.2564687 77.5495313,17.258625 C77.4503438,17.2607812 77.3511563,17.2715625 77.254125,17.2888125 C77.2217812,17.293125 77.1915937,17.2974375 77.1614063,17.3039062 C76.5770625,17.4225 76.0444688,17.7739687 75.7210312,18.328125 C75.6800625,18.3992812 75.6779063,18.4769062 75.6477187,18.552375 C75.6283125,18.5976562 75.615375,18.6450937 75.6002813,18.690375 C75.417,19.2014062 75.4299375,19.7296875 75.6304688,20.2148437 C75.649875,20.260125 75.67575,20.3054062 75.6973125,20.3506875 C75.787875,20.5318125 75.8956875,20.6978437 76.0358437,20.8509375 C76.1565938,20.9824687 76.2859687,21.1010625 76.43475,21.20025 C76.4670938,21.2218125 76.4843437,21.252 76.5166875,21.2714062 L93.8184375,29.8964062 C94.8534375,30.4915312 96.1795313,30.1379062 96.7789688,29.1072187 C97.37625,28.074375 97.0204687,26.7569062 95.9854687,26.1617812 L86.810625,21.588375 C106.792594,21.8924062 122.90625,38.1634687 122.90625,58.21875 L122.90625,63.3441562 L70.0565625,36.9451875 C70.0285313,36.9300937 69.9983438,36.9300937 69.9703125,36.9171562 C69.77625,36.8222812 69.5800312,36.7489687 69.3665625,36.7144687 C69.2415,36.69075 69.1229062,36.69075 68.9978438,36.6885937 C68.8727813,36.6885937 68.7541875,36.69075 68.629125,36.7144687 C68.4156562,36.7489687 68.2215937,36.820125 68.025375,36.9171562 C67.9973437,36.9300937 67.9671563,36.9300937 67.939125,36.9451875 L15.09375,63.3441562 L15.09375,63.3441562 Z M56.994,97.03125 L64.6875,97.03125 C65.8799063,97.03125 66.84375,96.0674062 66.84375,94.875 C66.84375,93.6825937 65.8799063,92.71875 64.6875,92.71875 L57.4360313,92.71875 L59.6483438,71.15625 L66.84375,71.15625 C68.0361563,71.15625 69,70.1924062 69,69 C69,67.8075937 68.0361563,66.84375 66.84375,66.84375 L60.090375,66.84375 L62.3803125,44.5416562 L69,41.2339687 L75.6196875,44.5416562 L76.581375,53.90625 L71.15625,53.90625 C69.9638438,53.90625 69,54.8700937 69,56.0625 C69,57.2549062 69.9638438,58.21875 71.15625,58.21875 L77.0234063,58.21875 L79.2357188,79.78125 L71.15625,79.78125 C69.9638438,79.78125 69,80.7450937 69,81.9375 C69,83.1299062 69.9638438,84.09375 71.15625,84.09375 L79.6799063,84.09375 L81.9504375,106.227656 C77.754375,105.854625 73.4267813,105.65625 69,105.65625 C64.575375,105.65625 60.245625,105.854625 56.0495625,106.227656 L56.994,97.03125 L56.994,97.03125 Z M5.183625,133.6875 C9.979125,120.258373 36.6691875,109.96875 69,109.96875 C101.330813,109.96875 128.020875,120.258375 132.816375,133.6875 L5.183625,133.6875 L5.183625,133.6875 Z M23.71875,125.0625 C22.5263438,125.0625 21.5625,126.026344 21.5625,127.21875 C21.5625,128.411156 22.5263438,129.375 23.71875,129.375 C24.9111563,129.375 25.875,128.411156 25.875,127.21875 C25.875,126.026344 24.9111563,125.0625 23.71875,125.0625 L23.71875,125.0625 Z M36.65625,118.59375 C35.4638438,118.59375 34.5,119.557594 34.5,120.75 C34.5,121.942406 35.4638438,122.90625 36.65625,122.90625 C37.8486563,122.90625 38.8125,121.942406 38.8125,120.75 C38.8125,119.557594 37.8486563,118.59375 36.65625,118.59375 L36.65625,118.59375 Z M47.4375,125.0625 C46.2450937,125.0625 45.28125,126.026344 45.28125,127.21875 C45.28125,128.411156 46.2450937,129.375 47.4375,129.375 C48.6299062,129.375 49.59375,128.411156 49.59375,127.21875 C49.59375,126.026344 48.6299062,125.0625 47.4375,125.0625 L47.4375,125.0625 Z M58.21875,118.59375 C57.0263438,118.59375 56.0625,119.557594 56.0625,120.75 C56.0625,121.942406 57.0263438,122.90625 58.21875,122.90625 C59.4111563,122.90625 60.375,121.942406 60.375,120.75 C60.375,119.557594 59.4111563,118.59375 58.21875,118.59375 L58.21875,118.59375 Z M69,125.0625 C67.8075937,125.0625 66.84375,126.026344 66.84375,127.21875 C66.84375,128.411156 67.8075937,129.375 69,129.375 C70.1924062,129.375 71.15625,128.411156 71.15625,127.21875 C71.15625,126.026344 70.1924062,125.0625 69,125.0625 L69,125.0625 Z M79.78125,118.59375 C78.5888438,118.59375 77.625,119.557594 77.625,120.75 C77.625,121.942406 78.5888438,122.90625 79.78125,122.90625 C80.9736562,122.90625 81.9375,121.942406 81.9375,120.75 C81.9375,119.557594 80.9736562,118.59375 79.78125,118.59375 L79.78125,118.59375 Z M90.5625,125.0625 C89.3700938,125.0625 88.40625,126.026344 88.40625,127.21875 C88.40625,128.411156 89.3700938,129.375 90.5625,129.375 C91.7549063,129.375 92.71875,128.411156 92.71875,127.21875 C92.71875,126.026344 91.7549063,125.0625 90.5625,125.0625 L90.5625,125.0625 Z M101.34375,118.59375 C100.151344,118.59375 99.1875,119.557594 99.1875,120.75 C99.1875,121.942406 100.151344,122.90625 101.34375,122.90625 C102.536156,122.90625 103.5,121.942406 103.5,120.75 C103.5,119.557594 102.536156,118.59375 101.34375,118.59375 L101.34375,118.59375 Z M112.125,125.0625 C110.932594,125.0625 109.96875,126.026344 109.96875,127.21875 C109.96875,128.411156 110.932594,129.375 112.125,129.375 C113.317406,129.375 114.28125,128.411156 114.28125,127.21875 C114.28125,126.026344 113.317406,125.0625 112.125,125.0625 L112.125,125.0625 Z" id="Fill-4" fill="#8592A5" mask="url(#mask-8)"></path>
                        </g>
                        <g opacity="0.5" transform="translate(398.000000, 197.000000)">
                            <polygon id="Fill-1" fill="#FFFFFF" points="9.703125 9.703125 197.296875 9.703125 197.296875 197.296875 9.703125 197.296875"></polygon>
                            <path d="M3.234375,3.234375 L3.234375,203.765625 L203.765625,203.765625 L203.765625,3.234375 L3.234375,3.234375 L3.234375,3.234375 Z M190.828125,190.828125 L16.171875,190.828125 L16.171875,16.171875 L190.828125,16.171875 L190.828125,190.828125 L190.828125,190.828125 Z M97.03125,109.96875 L97.03125,55.1493281 C69.966,56.8247344 48.515625,79.2454219 48.515625,106.734375 C48.515625,121.023844 54.3083906,133.961344 63.6751406,143.324859 L97.03125,109.96875 L97.03125,109.96875 Z" id="Fill-3" fill="#C2CDDC"></path>
                            <path d="M97.7363438,109.96875 L64.6842656,143.324859 C73.9604531,152.691609 86.7815156,158.484375 100.941609,158.484375 C128.178281,158.484375 150.391969,137.034 152.054438,109.96875 L97.7363438,109.96875 L97.7363438,109.96875 Z" id="Fill-4" fill="#FFFFFF"></path>
                            <path d="M109.96875,48.6805781 L109.96875,97.03125 L158.319422,97.03125 C156.708703,71.0398125 135.960188,50.2912969 109.96875,48.6805781 L109.96875,48.6805781 Z" id="Fill-5" fill="#EDF2F8"></path>
                            <path d="M171.421875,155.25 L139.078125,155.25 C137.289516,155.25 135.84375,156.695766 135.84375,158.484375 C135.84375,160.272984 137.289516,161.71875 139.078125,161.71875 L171.421875,161.71875 C173.210484,161.71875 174.65625,160.272984 174.65625,158.484375 C174.65625,156.695766 173.210484,155.25 171.421875,155.25 L171.421875,155.25 Z M35.578125,38.8125 L67.921875,38.8125 C69.7104844,38.8125 71.15625,37.3667344 71.15625,35.578125 C71.15625,33.7895156 69.7104844,32.34375 67.921875,32.34375 L35.578125,32.34375 C33.7895156,32.34375 32.34375,33.7895156 32.34375,35.578125 C32.34375,37.3667344 33.7895156,38.8125 35.578125,38.8125 L35.578125,38.8125 Z M164.953125,168.1875 L139.078125,168.1875 C137.289516,168.1875 135.84375,169.633266 135.84375,171.421875 C135.84375,173.210484 137.289516,174.65625 139.078125,174.65625 L164.953125,174.65625 C166.741734,174.65625 168.1875,173.210484 168.1875,171.421875 C168.1875,169.633266 166.741734,168.1875 164.953125,168.1875 L164.953125,168.1875 Z M139.078125,38.8125 L171.421875,38.8125 C173.210484,38.8125 174.65625,37.3667344 174.65625,35.578125 C174.65625,33.7895156 173.210484,32.34375 171.421875,32.34375 L139.078125,32.34375 C137.289516,32.34375 135.84375,33.7895156 135.84375,35.578125 C135.84375,37.3667344 137.289516,38.8125 139.078125,38.8125 L139.078125,38.8125 Z M194.0625,12.9375 L12.9375,12.9375 L12.9375,194.0625 L194.0625,194.0625 L194.0625,12.9375 L194.0625,12.9375 Z M187.59375,187.59375 L19.40625,187.59375 L19.40625,19.40625 L187.59375,19.40625 L187.59375,187.59375 L187.59375,187.59375 Z M106.734375,45.28125 L106.734375,100.265625 L161.71875,100.265625 C161.71875,69.8980781 137.101922,45.28125 106.734375,45.28125 L106.734375,45.28125 Z M113.203125,52.2286875 C134.811984,55.1169844 151.883016,72.1977187 154.771313,93.796875 L113.203125,93.796875 L113.203125,52.2286875 L113.203125,52.2286875 Z M45.28125,106.734375 C45.28125,137.101922 69.8980781,161.71875 100.265625,161.71875 C130.633172,161.71875 155.25,137.101922 155.25,106.734375 L100.265625,106.734375 L100.265625,51.75 C69.8980781,51.75 45.28125,76.3668281 45.28125,106.734375 L45.28125,106.734375 Z M51.75,106.734375 C51.75,82.1401875 70.0695,61.8703594 93.796875,58.6974375 L93.796875,108.490641 L63.7171875,138.573563 C56.2845938,130.04775 51.75,118.931203 51.75,106.734375 L51.75,106.734375 Z M148.302563,113.203125 C145.129641,136.9305 124.859813,155.25 100.265625,155.25 C88.0170469,155.25 76.8616875,150.676594 68.3229375,143.189016 L98.3055938,113.203125 L148.302563,113.203125 L148.302563,113.203125 Z M200.53125,0 L6.46875,0 C2.898,0 0,2.898 0,6.46875 L0,200.53125 C0,204.102 2.898,207 6.46875,207 L200.53125,207 C204.102,207 207,204.102 207,200.53125 L207,6.46875 C207,2.898 204.102,0 200.53125,0 L200.53125,0 Z M200.53125,200.53125 L6.46875,200.53125 L6.46875,6.46875 L200.53125,6.46875 L200.53125,200.53125 L200.53125,200.53125 Z M71.15625,48.515625 C71.15625,46.7270156 69.7104844,45.28125 67.921875,45.28125 L42.046875,45.28125 C40.2582656,45.28125 38.8125,46.7270156 38.8125,48.515625 C38.8125,50.3042344 40.2582656,51.75 42.046875,51.75 L67.921875,51.75 C69.7104844,51.75 71.15625,50.3042344 71.15625,48.515625 L71.15625,48.515625 Z" id="Fill-6" fill="#8592A5"></path>
                        </g>
                        <g opacity="0.8" transform="translate(72.000000, 174.000000)">
                            <path d="M121.40625,0 C96.8214844,0 76.890625,19.9308594 76.890625,44.515625 C76.890625,69.1003906 96.8214844,89.03125 121.40625,89.03125 C145.991016,89.03125 165.921875,69.1003906 165.921875,44.515625 C165.921875,19.9308594 145.991016,0 121.40625,0 L121.40625,0 Z M121.40625,80.9375 C101.289234,80.9375 84.984375,64.6326406 84.984375,44.515625 C84.984375,24.3986094 101.289234,8.09375 121.40625,8.09375 C141.523266,8.09375 157.828125,24.3986094 157.828125,44.515625 C157.828125,64.6326406 141.523266,80.9375 121.40625,80.9375 L121.40625,80.9375 Z M121.40625,16.1875 C105.761031,16.1875 93.078125,28.8704062 93.078125,44.515625 C93.078125,60.1608437 105.761031,72.84375 121.40625,72.84375 C137.051469,72.84375 149.734375,60.1608437 149.734375,44.515625 C149.734375,28.8704062 137.051469,16.1875 121.40625,16.1875 L121.40625,16.1875 Z M121.40625,64.75 C110.228781,64.75 101.171875,55.6930938 101.171875,44.515625 C101.171875,33.3381562 110.228781,24.28125 121.40625,24.28125 C132.583719,24.28125 141.640625,33.3381562 141.640625,44.515625 C141.640625,55.6930938 132.583719,64.75 121.40625,64.75 L121.40625,64.75 Z" id="Fill-1" fill="#8592A5"></path>
                            <path d="M235.605016,137.59375 C230.170062,119.880578 217.742109,104.223219 200.700719,92.3173125 L210.4375,72.84375 C198.620625,72.84375 186.929203,76.9189531 179.167297,80.3466562 C162.125906,73.0015781 142.421672,68.796875 121.40625,68.796875 C82.0139687,68.796875 47.2391719,83.5679687 25.9526094,106.157625 C23.7430156,103.14675 20.2060469,101.171875 16.1875,101.171875 C9.48182812,101.171875 4.046875,106.606828 4.046875,113.3125 C4.046875,118.715078 7.60003125,123.239484 12.4765156,124.813719 C7.090125,135.032078 4.046875,146.152891 4.046875,157.828125 C4.046875,187.475531 23.2290625,213.670953 52.609375,229.850363 L52.609375,254.953125 L93.078125,254.953125 L93.078125,244.139875 C102.167406,245.851699 111.620906,246.859375 121.40625,246.859375 C131.1835,246.859375 140.657234,245.904313 149.734375,244.192484 L149.734375,254.953125 L190.203125,254.953125 L190.203125,229.834172 C212.630906,217.450734 229.105734,199.227656 235.605016,178.0625 L254.953125,178.0625 L254.953125,137.59375 L235.605016,137.59375 L235.605016,137.59375 Z" id="Fill-3" fill="#EDF2F8"></path>
                            <path d="M208.066881,127.823744 C211.227693,130.984556 211.227693,136.109194 208.066881,139.270006 C204.906069,142.430818 199.781431,142.430818 196.620619,139.270006 C193.459807,136.109194 193.459807,130.984556 196.620619,127.823744 C199.781431,124.662932 204.906069,124.662932 208.066881,127.823744" id="Fill-4" fill="#C2CDDC"></path>
                            <path d="M164.329834,114.904541 C188.035902,138.610568 188.035902,177.045682 164.329834,200.751709 C140.623807,224.457761 102.188693,224.457761 78.4826656,200.751709 C54.776598,177.045682 54.776598,138.610568 78.4826656,114.904541 C102.188693,91.198473 140.623807,91.198473 164.329834,114.904541" id="Fill-5" fill="#C2CDDC"></path>
                            <path d="M152.883532,126.350843 C170.267976,143.735247 170.267976,171.921003 152.883532,189.305407 C135.499128,206.689851 107.313372,206.689851 89.9289683,189.305407 C72.5445241,171.921003 72.5445241,143.735247 89.9289683,126.350843 C107.313372,108.966399 135.499128,108.966399 152.883532,126.350843" id="Fill-6" fill="#FFFFFF"></path>
                            <path d="M121.40625,109.265625 C94.5835625,109.265625 72.84375,131.005437 72.84375,157.828125 C72.84375,184.646766 94.5835625,206.390625 121.40625,206.390625 C148.224891,206.390625 169.96875,184.646766 169.96875,157.828125 C169.96875,131.005437 148.224891,109.265625 121.40625,109.265625 L121.40625,109.265625 Z M121.40625,198.296875 C99.0594062,198.296875 80.9375,180.174969 80.9375,157.828125 C80.9375,135.481281 99.0594062,117.359375 121.40625,117.359375 C143.753094,117.359375 161.875,135.481281 161.875,157.828125 C161.875,180.174969 143.753094,198.296875 121.40625,198.296875 L121.40625,198.296875 Z M63.2162344,213.254125 C62.8641562,213.067969 62.5323125,212.861578 62.1802344,212.671375 C62.1680937,212.663281 62.1559531,212.651141 62.1397656,212.647094 C39.1939844,200.089641 24.28125,180.251859 24.28125,157.828125 C24.28125,155.590203 22.46825,153.78125 20.234375,153.78125 C17.9964531,153.78125 16.1875,155.590203 16.1875,157.828125 C16.1875,183.165609 32.7068437,205.569109 58.0847969,219.579391 L58.1293125,219.518687 C58.8172812,220.056922 59.6428437,220.429234 60.5776719,220.429234 C62.8115469,220.429234 64.6245469,218.616234 64.6245469,216.382359 C64.6245469,215.139969 64.0337031,214.075641 63.1595781,213.331016 L63.2162344,213.254125 L63.2162344,213.254125 Z M121.40625,93.078125 C85.6440156,93.078125 56.65625,122.065891 56.65625,157.828125 C56.65625,193.586312 85.6440156,222.578125 121.40625,222.578125 C157.164437,222.578125 186.15625,193.586312 186.15625,157.828125 C186.15625,122.065891 157.164437,93.078125 121.40625,93.078125 L121.40625,93.078125 Z M121.40625,214.484375 C90.1158125,214.484375 64.75,189.114516 64.75,157.828125 C64.75,126.537687 90.1158125,101.171875 121.40625,101.171875 C152.692641,101.171875 178.0625,126.537687 178.0625,157.828125 C178.0625,189.114516 152.692641,214.484375 121.40625,214.484375 L121.40625,214.484375 Z M202.34375,121.40625 C195.638078,121.40625 190.203125,126.841203 190.203125,133.546875 C190.203125,140.2485 195.638078,145.6875 202.34375,145.6875 C209.045375,145.6875 214.484375,140.2485 214.484375,133.546875 C214.484375,126.841203 209.045375,121.40625 202.34375,121.40625 L202.34375,121.40625 Z M202.34375,137.59375 C200.105828,137.59375 198.296875,135.784797 198.296875,133.546875 C198.296875,131.308953 200.105828,129.5 202.34375,129.5 C204.577625,129.5 206.390625,131.308953 206.390625,133.546875 C206.390625,135.784797 204.577625,137.59375 202.34375,137.59375 L202.34375,137.59375 Z M250.90625,133.546875 L238.494484,133.546875 C232.707453,117.108469 221.153625,102.515438 205.686469,91.0101719 C208.717578,82.8678594 213.666906,75.660375 220.040734,69.9907031 C216.952969,69.2379844 213.747844,68.796875 210.4375,68.796875 C202.007859,68.796875 190.154562,71.3787812 178.657391,75.7858281 C161.611953,68.7564063 142.130297,64.75 121.40625,64.75 C82.6129062,64.75 48.1537656,78.7481406 25.9283281,100.459625 C23.212875,98.3957188 19.8620625,97.125 16.1875,97.125 C7.24795312,97.125 0,104.372953 0,113.3125 C0,118.885047 2.816625,123.793906 7.10226562,126.707656 C2.58595312,136.452531 0,146.897516 0,157.828125 C0,188.252531 19.1255312,215.180437 48.5625,232.161125 L48.5625,250.90625 C48.5625,255.374 52.1885,259 56.65625,259 L89.03125,259 C93.499,259 97.125,255.374 97.125,250.90625 L97.125,249.036594 C104.967844,250.25875 113.089922,250.90625 121.40625,250.90625 C129.738766,250.90625 137.836562,250.189953 145.6875,248.96375 L145.6875,250.90625 C145.6875,255.374 149.3135,259 153.78125,259 L186.15625,259 C190.624,259 194.25,255.374 194.25,250.90625 L194.25,232.181359 C215.504187,219.886953 231.355797,202.380172 238.494484,182.109375 L250.90625,182.109375 C255.374,182.109375 259,178.483375 259,174.015625 L259,141.640625 C259,137.172875 255.374,133.546875 250.90625,133.546875 L250.90625,133.546875 Z M250.90625,174.015625 L232.610328,174.015625 C226.924469,196.099422 209.850703,215.139969 186.15625,227.555781 L186.15625,250.90625 L153.78125,250.90625 L153.78125,239.222922 C143.514328,241.521547 132.668703,242.8125 121.40625,242.8125 C110.147844,242.8125 99.294125,241.541781 89.03125,239.247203 L89.03125,250.90625 L56.65625,250.90625 L56.65625,227.515312 C27.3245,212.157422 8.09375,186.694484 8.09375,157.828125 C8.09375,146.197406 11.298875,135.149438 16.9564063,125.056531 L10.29525,118.395375 C7.26414063,115.364266 7.26414063,110.447313 10.29525,107.42025 C13.3223125,104.389141 18.2392656,104.389141 21.270375,107.42025 L25.9890313,112.138906 C46.1181875,88.5415781 81.2774375,72.84375 121.40625,72.84375 C142.883016,72.84375 162.915047,77.3681563 180.013094,85.1583906 C187.046562,81.0710469 194.937969,78.3110781 203.395937,77.3276875 C200.202953,82.4712656 197.835531,88.1490312 196.273438,94.1505469 C214.64625,106.327594 227.770266,122.859078 232.606281,141.636578 L250.90625,141.636578 L250.90625,174.015625 L250.90625,174.015625 Z M125.173891,153.441312 L119.366625,151.960156 C113.729328,150.207859 112.660953,148.479844 112.660953,145.893891 C112.660953,142.834453 115.064797,140.867672 119.249266,140.491312 C119.265453,140.487266 119.872484,140.426562 120.795172,140.426562 C121.839266,140.426562 123.393266,140.5075 124.882516,140.896 C126.800734,141.401859 129.771141,142.470234 132.353047,143.955437 C133.182656,144.428922 134.028453,144.671734 134.866156,144.671734 C137.504719,144.671734 139.576719,142.721141 139.576719,140.228266 C139.576719,138.577141 138.710687,137.241672 137.095984,136.367547 C133.692562,134.311734 129.406922,132.935797 125.457172,132.385422 L125.457172,129.5 C125.457172,127.262078 123.644172,125.453125 121.410297,125.453125 C119.172375,125.453125 117.363422,127.262078 117.363422,129.5 L117.363422,132.518969 C108.484578,133.700656 102.802766,139.006109 102.802766,146.391656 C102.802766,154.250687 107.505234,158.629406 119.059062,161.510781 L124.866328,162.84625 C130.653359,164.574266 131.786484,166.427734 131.786484,169.050109 C131.786484,172.210719 129.366453,174.209875 124.991781,174.667172 C124.979641,174.667172 124.392844,174.711687 123.486344,174.711687 C122.401781,174.711687 120.876109,174.650984 119.289734,174.391984 C116.206016,173.882078 111.798969,171.971953 108.601937,169.754266 C107.841125,169.183656 106.825359,168.855859 105.817687,168.855859 C103.2115,168.855859 101.179969,170.806453 101.179969,173.299328 C101.179969,174.905937 101.956969,176.241406 103.417891,177.143859 C107.67925,180.021187 112.373625,181.801812 117.367469,182.538344 L117.367469,186.15625 C117.367469,188.390125 119.176422,190.203125 121.414344,190.203125 C123.648219,190.203125 125.461219,188.390125 125.461219,186.15625 L125.461219,182.849953 C135.011844,181.789672 141.648719,176.229266 141.648719,168.560437 C141.640625,160.725687 136.711531,156.201281 125.173891,153.441312 L125.173891,153.441312 Z" id="Fill-7" fill="#8592A5"></path>
                        </g>
                    </g>
                </g>
            </g>
        </g>
    </g>
</svg>